<svg width="21" height="20" viewBox="0 0 21 20" fill="none" xmlns="http://www.w3.org/2000/svg">
<path d="M19.3727 0.781738C18.6291 0.781738 13.4236 1.94537 13.4236 7.18174V11.2545C13.4236 12.5381 14.7575 13.5817 16.3981 13.5817H17.8854V18.2363C17.8854 18.8799 18.55 19.3999 19.3727 19.3999C20.1953 19.3999 20.86 18.8799 20.86 18.2363V13.5817V9.50901V1.94537C20.86 1.30174 20.1953 0.781738 19.3727 0.781738ZM3.01264 1.36356C3.01264 1.06537 2.72913 0.818102 2.34801 0.785375C1.9669 0.752647 1.62761 0.949011 1.54395 1.23628L0.135689 6.19265C0.0706201 6.42174 0.0380859 6.65447 0.0380859 6.88719C0.0380859 8.55628 1.66944 9.92719 3.75628 10.0763V18.2363C3.75628 18.8799 4.42091 19.3999 5.24356 19.3999C6.06621 19.3999 6.73084 18.8799 6.73084 18.2363V10.0763C8.81767 9.92719 10.449 8.55628 10.449 6.88719C10.449 6.65447 10.4165 6.42174 10.3514 6.19265L8.94316 1.23628C8.8595 0.945375 8.51092 0.752647 8.13445 0.785375C7.75799 0.818102 7.47447 1.06537 7.47447 1.36356V6.24356C7.47447 6.43992 7.26997 6.59992 7.019 6.59992C6.78196 6.59992 6.58676 6.4581 6.56352 6.27265L5.98255 1.31265C5.95002 1.01083 5.62932 0.781738 5.24356 0.781738C4.8578 0.781738 4.5371 1.01083 4.50457 1.31265L3.92825 6.27265C3.90501 6.4581 3.7098 6.59992 3.47277 6.59992C3.22179 6.59992 3.01729 6.43992 3.01729 6.24356V1.36356H3.01264ZM5.2575 6.89083H5.24356H5.22961L5.24356 6.86537L5.2575 6.89083Z" fill="#FBF2BF"/>
</svg>
